<svg xmlns="http://www.w3.org/2000/svg" xmlns:xlink="http://www.w3.org/1999/xlink" width="40" zoomAndPan="magnify" viewBox="0 0 30 30.000001" height="40" preserveAspectRatio="xMidYMid meet" version="1.0"><defs><g/><clipPath id="82b8d0d1e2"><path d="M 0.484375 6 L 29.515625 6 L 29.515625 25 L 0.484375 25 Z M 0.484375 6 " clip-rule="nonzero"/></clipPath><clipPath id="f2faf2ffab"><path d="M 0.949219 0.734375 L 29.285156 0.734375 L 29.285156 18.386719 L 0.949219 18.386719 Z M 0.949219 0.734375 " clip-rule="nonzero"/></clipPath><clipPath id="e01c24e674"><rect x="0" width="30" y="0" height="19"/></clipPath><clipPath id="227d0f5a91"><path d="M 6.417969 1.636719 L 23.675781 1.636719 L 23.675781 17.015625 L 6.417969 17.015625 Z M 6.417969 1.636719 " clip-rule="nonzero"/></clipPath><clipPath id="120bd7483f"><rect x="0" width="30" y="0" height="19"/></clipPath></defs><g clip-path="url(#82b8d0d1e2)"><g transform="matrix(1, 0, 0, 1, 0.000000000000000111, 6)"><g clip-path="url(#120bd7483f)"><g clip-path="url(#f2faf2ffab)"><g transform="matrix(1, 0, 0, 1, 0.000000000000000111, 0.000000000000005329)"><g clip-path="url(#e01c24e674)"><g fill="#e61b79" fill-opacity="1"><g transform="translate(1.100531, 14.446493)"><g><path d="M 0.484375 -4.9375 C 0.378906 -4.988281 0.328125 -5.070312 0.328125 -5.1875 C 0.316406 -5.28125 0.3125 -5.367188 0.3125 -5.453125 C 0.320312 -5.546875 0.332031 -5.632812 0.34375 -5.71875 C 0.34375 -5.769531 0.363281 -5.835938 0.40625 -5.921875 C 0.445312 -6.015625 0.507812 -6.0625 0.59375 -6.0625 C 0.664062 -6.070312 0.734375 -6.078125 0.796875 -6.078125 C 0.867188 -6.085938 0.941406 -6.097656 1.015625 -6.109375 C 1.160156 -6.117188 1.300781 -6.128906 1.4375 -6.140625 C 1.570312 -6.160156 1.707031 -6.191406 1.84375 -6.234375 C 1.90625 -6.253906 1.953125 -6.265625 1.984375 -6.265625 C 2.210938 -6.316406 2.363281 -6.4375 2.4375 -6.625 C 2.476562 -6.707031 2.503906 -6.789062 2.515625 -6.875 C 2.535156 -6.96875 2.550781 -7.050781 2.5625 -7.125 C 2.582031 -7.226562 2.59375 -7.328125 2.59375 -7.421875 C 2.59375 -7.515625 2.597656 -7.613281 2.609375 -7.71875 C 2.609375 -7.820312 2.601562 -7.925781 2.59375 -8.03125 C 2.59375 -8.132812 2.597656 -8.238281 2.609375 -8.34375 C 2.617188 -8.550781 2.617188 -8.757812 2.609375 -8.96875 C 2.609375 -9.1875 2.613281 -9.398438 2.625 -9.609375 C 2.632812 -9.796875 2.640625 -9.984375 2.640625 -10.171875 C 2.640625 -10.367188 2.640625 -10.5625 2.640625 -10.75 C 2.648438 -10.84375 2.65625 -10.929688 2.65625 -11.015625 C 2.65625 -11.109375 2.660156 -11.203125 2.671875 -11.296875 C 2.691406 -11.390625 2.695312 -11.484375 2.6875 -11.578125 C 2.6875 -11.671875 2.691406 -11.765625 2.703125 -11.859375 C 2.710938 -12.046875 2.742188 -12.242188 2.796875 -12.453125 C 2.804688 -12.535156 2.835938 -12.625 2.890625 -12.71875 C 2.960938 -12.863281 3.097656 -12.960938 3.296875 -13.015625 C 3.359375 -13.035156 3.421875 -13.050781 3.484375 -13.0625 C 3.546875 -13.070312 3.609375 -13.078125 3.671875 -13.078125 C 3.765625 -13.066406 3.859375 -13.0625 3.953125 -13.0625 C 4.046875 -13.070312 4.140625 -13.078125 4.234375 -13.078125 C 4.285156 -13.078125 4.335938 -13.078125 4.390625 -13.078125 C 4.453125 -13.078125 4.507812 -13.085938 4.5625 -13.109375 C 4.570312 -13.109375 4.578125 -13.109375 4.578125 -13.109375 C 4.671875 -13.097656 4.765625 -13.097656 4.859375 -13.109375 C 4.953125 -13.128906 5.046875 -13.140625 5.140625 -13.140625 C 5.222656 -13.148438 5.304688 -13.15625 5.390625 -13.15625 C 5.484375 -13.15625 5.570312 -13.15625 5.65625 -13.15625 C 5.675781 -13.15625 5.695312 -13.15625 5.71875 -13.15625 C 5.738281 -13.15625 5.757812 -13.15625 5.78125 -13.15625 C 5.800781 -13.144531 5.816406 -13.128906 5.828125 -13.109375 C 5.847656 -13.097656 5.863281 -13.082031 5.875 -13.0625 C 5.894531 -13.039062 5.90625 -13.023438 5.90625 -13.015625 C 5.9375 -12.890625 5.945312 -12.773438 5.9375 -12.671875 C 5.9375 -12.597656 5.9375 -12.519531 5.9375 -12.4375 C 5.945312 -12.351562 5.945312 -12.269531 5.9375 -12.1875 C 5.9375 -12.164062 5.9375 -12.140625 5.9375 -12.109375 C 5.9375 -12.078125 5.929688 -12.050781 5.921875 -12.03125 C 5.890625 -11.945312 5.84375 -11.90625 5.78125 -11.90625 C 5.707031 -11.894531 5.632812 -11.882812 5.5625 -11.875 C 5.5 -11.863281 5.425781 -11.859375 5.34375 -11.859375 C 5.144531 -11.867188 4.941406 -11.867188 4.734375 -11.859375 C 4.535156 -11.859375 4.335938 -11.859375 4.140625 -11.859375 C 4.085938 -11.835938 4.046875 -11.800781 4.015625 -11.75 C 3.984375 -11.707031 3.953125 -11.660156 3.921875 -11.609375 C 3.921875 -11.566406 3.921875 -11.519531 3.921875 -11.46875 C 3.921875 -11.425781 3.921875 -11.378906 3.921875 -11.328125 C 3.910156 -11.265625 3.90625 -11.203125 3.90625 -11.140625 C 3.914062 -11.078125 3.910156 -11.019531 3.890625 -10.96875 C 3.878906 -10.9375 3.875 -10.90625 3.875 -10.875 C 3.875 -10.84375 3.875 -10.816406 3.875 -10.796875 C 3.875 -10.421875 3.875 -10.039062 3.875 -9.65625 C 3.875 -9.28125 3.875 -8.90625 3.875 -8.53125 C 3.875 -8.488281 3.875 -8.441406 3.875 -8.390625 C 3.882812 -8.347656 3.894531 -8.300781 3.90625 -8.25 C 3.925781 -8.113281 3.921875 -7.988281 3.890625 -7.875 C 3.890625 -7.851562 3.882812 -7.832031 3.875 -7.8125 C 3.875 -7.800781 3.875 -7.785156 3.875 -7.765625 C 3.882812 -7.660156 3.878906 -7.546875 3.859375 -7.421875 C 3.835938 -7.304688 3.820312 -7.1875 3.8125 -7.0625 C 3.800781 -6.9375 3.78125 -6.8125 3.75 -6.6875 C 3.726562 -6.5625 3.703125 -6.441406 3.671875 -6.328125 C 3.640625 -6.191406 3.59375 -6.070312 3.53125 -5.96875 C 3.46875 -5.820312 3.375 -5.703125 3.25 -5.609375 C 3.238281 -5.597656 3.226562 -5.585938 3.21875 -5.578125 C 3.207031 -5.578125 3.195312 -5.570312 3.1875 -5.5625 C 3.195312 -5.519531 3.210938 -5.488281 3.234375 -5.46875 C 3.265625 -5.457031 3.289062 -5.441406 3.3125 -5.421875 C 3.488281 -5.285156 3.613281 -5.113281 3.6875 -4.90625 C 3.71875 -4.800781 3.742188 -4.703125 3.765625 -4.609375 C 3.796875 -4.515625 3.820312 -4.414062 3.84375 -4.3125 C 3.863281 -4.269531 3.875 -4.226562 3.875 -4.1875 C 3.875 -4.144531 3.878906 -4.097656 3.890625 -4.046875 C 3.910156 -3.921875 3.921875 -3.796875 3.921875 -3.671875 C 3.929688 -3.554688 3.941406 -3.441406 3.953125 -3.328125 C 3.972656 -3.242188 3.984375 -3.171875 3.984375 -3.109375 C 3.984375 -3.046875 3.984375 -2.976562 3.984375 -2.90625 C 3.984375 -2.84375 3.984375 -2.773438 3.984375 -2.703125 C 3.984375 -2.671875 3.976562 -2.632812 3.96875 -2.59375 C 3.96875 -2.5625 3.96875 -2.53125 3.96875 -2.5 C 3.96875 -2.113281 3.96875 -1.726562 3.96875 -1.34375 C 3.96875 -0.957031 3.96875 -0.566406 3.96875 -0.171875 C 3.96875 -0.128906 3.96875 -0.09375 3.96875 -0.0625 C 3.976562 -0.03125 3.984375 0.00390625 3.984375 0.046875 C 3.992188 0.109375 4 0.171875 4 0.234375 C 4.007812 0.296875 4.007812 0.363281 4 0.4375 C 3.988281 0.613281 4.066406 0.757812 4.234375 0.875 C 4.253906 0.875 4.269531 0.875 4.28125 0.875 C 4.300781 0.875 4.316406 0.875 4.328125 0.875 C 4.390625 0.863281 4.453125 0.851562 4.515625 0.84375 C 4.578125 0.84375 4.640625 0.851562 4.703125 0.875 C 4.734375 0.882812 4.78125 0.890625 4.84375 0.890625 C 4.9375 0.890625 5.03125 0.890625 5.125 0.890625 C 5.21875 0.890625 5.304688 0.890625 5.390625 0.890625 C 5.566406 0.878906 5.75 0.894531 5.9375 0.9375 C 6 1 6.03125 1.078125 6.03125 1.171875 C 6.03125 1.273438 6.03125 1.378906 6.03125 1.484375 C 6.03125 1.585938 6.03125 1.695312 6.03125 1.8125 C 6.019531 1.851562 6.007812 1.890625 6 1.921875 C 6 1.960938 5.992188 2 5.984375 2.03125 C 5.929688 2.125 5.847656 2.171875 5.734375 2.171875 C 5.679688 2.171875 5.625 2.171875 5.5625 2.171875 C 5.5 2.179688 5.4375 2.175781 5.375 2.15625 C 5.34375 2.144531 5.300781 2.140625 5.25 2.140625 C 5.144531 2.140625 5.035156 2.132812 4.921875 2.125 C 4.804688 2.125 4.691406 2.113281 4.578125 2.09375 C 4.546875 2.082031 4.515625 2.078125 4.484375 2.078125 C 4.453125 2.085938 4.421875 2.09375 4.390625 2.09375 C 4.285156 2.09375 4.1875 2.09375 4.09375 2.09375 C 4 2.09375 3.898438 2.09375 3.796875 2.09375 C 3.722656 2.09375 3.65625 2.082031 3.59375 2.0625 C 3.53125 2.050781 3.460938 2.039062 3.390625 2.03125 C 3.242188 2 3.128906 1.929688 3.046875 1.828125 C 2.960938 1.722656 2.90625 1.601562 2.875 1.46875 C 2.863281 1.414062 2.847656 1.351562 2.828125 1.28125 C 2.816406 1.21875 2.816406 1.15625 2.828125 1.09375 C 2.804688 1 2.796875 0.90625 2.796875 0.8125 C 2.804688 0.71875 2.800781 0.625 2.78125 0.53125 C 2.757812 0.289062 2.742188 0.0546875 2.734375 -0.171875 C 2.734375 -0.410156 2.734375 -0.644531 2.734375 -0.875 C 2.722656 -1.082031 2.710938 -1.289062 2.703125 -1.5 C 2.703125 -1.707031 2.703125 -1.914062 2.703125 -2.125 C 2.703125 -2.375 2.695312 -2.617188 2.6875 -2.859375 C 2.6875 -3.109375 2.6875 -3.359375 2.6875 -3.609375 C 2.6875 -3.671875 2.675781 -3.734375 2.65625 -3.796875 C 2.644531 -3.867188 2.632812 -3.9375 2.625 -4 C 2.613281 -4.050781 2.601562 -4.101562 2.59375 -4.15625 C 2.582031 -4.21875 2.566406 -4.273438 2.546875 -4.328125 C 2.472656 -4.546875 2.304688 -4.6875 2.046875 -4.75 C 1.941406 -4.769531 1.835938 -4.789062 1.734375 -4.8125 C 1.640625 -4.84375 1.539062 -4.863281 1.4375 -4.875 C 1.375 -4.882812 1.3125 -4.890625 1.25 -4.890625 C 1.1875 -4.890625 1.128906 -4.890625 1.078125 -4.890625 C 1.015625 -4.890625 0.953125 -4.890625 0.890625 -4.890625 C 0.835938 -4.898438 0.785156 -4.910156 0.734375 -4.921875 C 0.691406 -4.929688 0.648438 -4.9375 0.609375 -4.9375 C 0.566406 -4.9375 0.523438 -4.9375 0.484375 -4.9375 Z M 0.484375 -4.9375 "/></g></g></g><g fill="#e61b79" fill-opacity="1"><g transform="translate(7.592752, 14.446493)"><g/></g></g><g fill="#e61b79" fill-opacity="1"><g transform="translate(10.089669, 14.446493)"><g/></g></g><g fill="#e61b79" fill-opacity="1"><g transform="translate(12.586586, 14.446493)"><g/></g></g><g fill="#e61b79" fill-opacity="1"><g transform="translate(15.083502, 14.446493)"><g/></g></g><g fill="#e61b79" fill-opacity="1"><g transform="translate(17.580419, 14.446493)"><g/></g></g><g fill="#e61b79" fill-opacity="1"><g transform="translate(20.077335, 14.446493)"><g/></g></g><g fill="#e61b79" fill-opacity="1"><g transform="translate(22.574802, 14.446493)"><g><path d="M 0.40625 0.859375 C 0.59375 0.804688 0.773438 0.789062 0.953125 0.8125 C 1.035156 0.8125 1.117188 0.8125 1.203125 0.8125 C 1.285156 0.8125 1.363281 0.8125 1.4375 0.8125 C 1.457031 0.8125 1.476562 0.8125 1.5 0.8125 C 1.519531 0.8125 1.539062 0.8125 1.5625 0.8125 C 1.644531 0.789062 1.734375 0.78125 1.828125 0.78125 C 1.921875 0.78125 2.003906 0.785156 2.078125 0.796875 C 2.148438 0.773438 2.203125 0.738281 2.234375 0.6875 C 2.265625 0.644531 2.296875 0.601562 2.328125 0.5625 C 2.328125 0.519531 2.328125 0.476562 2.328125 0.4375 C 2.328125 0.40625 2.328125 0.367188 2.328125 0.328125 C 2.328125 0.265625 2.328125 0.203125 2.328125 0.140625 C 2.335938 0.078125 2.347656 0.015625 2.359375 -0.046875 C 2.367188 -0.078125 2.375 -0.109375 2.375 -0.140625 C 2.375 -0.171875 2.375 -0.203125 2.375 -0.234375 C 2.375 -0.628906 2.375 -1.019531 2.375 -1.40625 C 2.375 -1.800781 2.375 -2.191406 2.375 -2.578125 C 2.375 -2.585938 2.375 -2.597656 2.375 -2.609375 C 2.375 -2.617188 2.375 -2.628906 2.375 -2.640625 C 2.363281 -2.753906 2.359375 -2.867188 2.359375 -2.984375 C 2.359375 -3.109375 2.359375 -3.234375 2.359375 -3.359375 C 2.367188 -3.441406 2.378906 -3.53125 2.390625 -3.625 C 2.398438 -3.71875 2.410156 -3.804688 2.421875 -3.890625 C 2.429688 -3.972656 2.441406 -4.050781 2.453125 -4.125 C 2.460938 -4.195312 2.472656 -4.269531 2.484375 -4.34375 C 2.503906 -4.4375 2.523438 -4.53125 2.546875 -4.625 C 2.566406 -4.71875 2.597656 -4.8125 2.640625 -4.90625 C 2.648438 -4.925781 2.65625 -4.941406 2.65625 -4.953125 C 2.65625 -4.972656 2.660156 -4.988281 2.671875 -5 C 2.722656 -5.1875 2.835938 -5.347656 3.015625 -5.484375 C 3.046875 -5.503906 3.09375 -5.546875 3.15625 -5.609375 C 3.144531 -5.617188 3.140625 -5.628906 3.140625 -5.640625 C 3.140625 -5.648438 3.132812 -5.65625 3.125 -5.65625 C 3.03125 -5.726562 2.953125 -5.8125 2.890625 -5.90625 C 2.835938 -6 2.785156 -6.097656 2.734375 -6.203125 C 2.679688 -6.347656 2.640625 -6.5 2.609375 -6.65625 C 2.578125 -6.820312 2.550781 -6.984375 2.53125 -7.140625 C 2.53125 -7.191406 2.523438 -7.238281 2.515625 -7.28125 C 2.503906 -7.320312 2.5 -7.363281 2.5 -7.40625 C 2.488281 -7.519531 2.476562 -7.628906 2.46875 -7.734375 C 2.457031 -7.835938 2.441406 -7.941406 2.421875 -8.046875 C 2.421875 -8.085938 2.421875 -8.125 2.421875 -8.15625 C 2.421875 -8.195312 2.425781 -8.238281 2.4375 -8.28125 C 2.4375 -8.332031 2.4375 -8.378906 2.4375 -8.421875 C 2.445312 -8.472656 2.453125 -8.519531 2.453125 -8.5625 C 2.453125 -8.957031 2.453125 -9.347656 2.453125 -9.734375 C 2.453125 -10.128906 2.453125 -10.519531 2.453125 -10.90625 C 2.453125 -10.945312 2.453125 -10.984375 2.453125 -11.015625 C 2.453125 -11.054688 2.445312 -11.09375 2.4375 -11.125 C 2.425781 -11.175781 2.421875 -11.226562 2.421875 -11.28125 C 2.421875 -11.34375 2.421875 -11.398438 2.421875 -11.453125 C 2.421875 -11.492188 2.421875 -11.535156 2.421875 -11.578125 C 2.421875 -11.617188 2.421875 -11.660156 2.421875 -11.703125 C 2.390625 -11.742188 2.359375 -11.78125 2.328125 -11.8125 C 2.296875 -11.851562 2.265625 -11.890625 2.234375 -11.921875 C 2.191406 -11.929688 2.140625 -11.9375 2.078125 -11.9375 C 1.878906 -11.9375 1.679688 -11.9375 1.484375 -11.9375 C 1.285156 -11.9375 1.085938 -11.941406 0.890625 -11.953125 C 0.828125 -11.953125 0.765625 -11.953125 0.703125 -11.953125 C 0.640625 -11.960938 0.582031 -11.972656 0.53125 -11.984375 C 0.46875 -12.023438 0.425781 -12.085938 0.40625 -12.171875 C 0.40625 -12.179688 0.40625 -12.191406 0.40625 -12.203125 C 0.40625 -12.210938 0.40625 -12.222656 0.40625 -12.234375 C 0.40625 -12.347656 0.40625 -12.460938 0.40625 -12.578125 C 0.40625 -12.703125 0.40625 -12.828125 0.40625 -12.953125 C 0.414062 -13.023438 0.425781 -13.070312 0.4375 -13.09375 C 0.445312 -13.113281 0.488281 -13.15625 0.5625 -13.21875 C 0.59375 -13.226562 0.648438 -13.234375 0.734375 -13.234375 C 0.847656 -13.234375 0.96875 -13.234375 1.09375 -13.234375 C 1.21875 -13.234375 1.335938 -13.222656 1.453125 -13.203125 C 1.492188 -13.191406 1.546875 -13.1875 1.609375 -13.1875 C 1.648438 -13.1875 1.6875 -13.1875 1.71875 -13.1875 C 1.757812 -13.1875 1.800781 -13.179688 1.84375 -13.171875 C 1.882812 -13.160156 1.941406 -13.15625 2.015625 -13.15625 C 2.109375 -13.15625 2.203125 -13.148438 2.296875 -13.140625 C 2.390625 -13.140625 2.484375 -13.144531 2.578125 -13.15625 C 2.722656 -13.15625 2.859375 -13.140625 2.984375 -13.109375 C 3.234375 -13.066406 3.40625 -12.925781 3.5 -12.6875 C 3.539062 -12.613281 3.566406 -12.53125 3.578125 -12.4375 C 3.585938 -12.351562 3.597656 -12.269531 3.609375 -12.1875 C 3.617188 -12.113281 3.625 -12.035156 3.625 -11.953125 C 3.625 -11.867188 3.625 -11.785156 3.625 -11.703125 C 3.632812 -11.660156 3.640625 -11.609375 3.640625 -11.546875 C 3.648438 -11.492188 3.660156 -11.441406 3.671875 -11.390625 C 3.671875 -11.335938 3.664062 -11.28125 3.65625 -11.21875 C 3.65625 -11.164062 3.660156 -11.113281 3.671875 -11.0625 C 3.691406 -10.976562 3.703125 -10.890625 3.703125 -10.796875 C 3.703125 -10.703125 3.703125 -10.613281 3.703125 -10.53125 C 3.703125 -10.238281 3.703125 -9.953125 3.703125 -9.671875 C 3.703125 -9.390625 3.707031 -9.101562 3.71875 -8.8125 C 3.71875 -8.800781 3.710938 -8.785156 3.703125 -8.765625 C 3.703125 -8.742188 3.707031 -8.722656 3.71875 -8.703125 C 3.738281 -8.628906 3.75 -8.550781 3.75 -8.46875 C 3.75 -8.394531 3.75 -8.316406 3.75 -8.234375 C 3.75 -8.160156 3.75 -8.082031 3.75 -8 C 3.75 -7.914062 3.75 -7.832031 3.75 -7.75 C 3.738281 -7.625 3.738281 -7.5 3.75 -7.375 C 3.769531 -7.25 3.789062 -7.125 3.8125 -7 C 3.8125 -6.945312 3.820312 -6.894531 3.84375 -6.84375 C 3.863281 -6.800781 3.882812 -6.753906 3.90625 -6.703125 C 3.976562 -6.523438 4.117188 -6.410156 4.328125 -6.359375 C 4.410156 -6.335938 4.492188 -6.316406 4.578125 -6.296875 C 4.660156 -6.285156 4.738281 -6.269531 4.8125 -6.25 C 4.914062 -6.226562 5.015625 -6.210938 5.109375 -6.203125 C 5.203125 -6.191406 5.300781 -6.179688 5.40625 -6.171875 C 5.46875 -6.171875 5.53125 -6.164062 5.59375 -6.15625 C 5.664062 -6.15625 5.734375 -6.148438 5.796875 -6.140625 C 5.929688 -6.054688 6 -5.929688 6 -5.765625 C 6.007812 -5.679688 6.015625 -5.597656 6.015625 -5.515625 C 6.015625 -5.429688 6.015625 -5.347656 6.015625 -5.265625 C 6.015625 -5.253906 6.003906 -5.21875 5.984375 -5.15625 C 5.941406 -5.0625 5.878906 -5.015625 5.796875 -5.015625 C 5.691406 -5.015625 5.59375 -5.003906 5.5 -4.984375 C 5.40625 -4.960938 5.304688 -4.957031 5.203125 -4.96875 C 5.066406 -4.976562 4.9375 -4.96875 4.8125 -4.9375 C 4.695312 -4.90625 4.578125 -4.878906 4.453125 -4.859375 C 4.390625 -4.847656 4.328125 -4.832031 4.265625 -4.8125 C 4.210938 -4.800781 4.15625 -4.78125 4.09375 -4.75 C 4.050781 -4.726562 4.003906 -4.695312 3.953125 -4.65625 C 3.910156 -4.625 3.875 -4.582031 3.84375 -4.53125 C 3.769531 -4.394531 3.726562 -4.257812 3.71875 -4.125 C 3.6875 -3.976562 3.664062 -3.832031 3.65625 -3.6875 C 3.65625 -3.550781 3.65625 -3.410156 3.65625 -3.265625 C 3.65625 -3.171875 3.65625 -3.078125 3.65625 -2.984375 C 3.65625 -2.890625 3.65625 -2.800781 3.65625 -2.71875 C 3.65625 -2.695312 3.65625 -2.671875 3.65625 -2.640625 C 3.664062 -2.609375 3.664062 -2.582031 3.65625 -2.5625 C 3.632812 -2.488281 3.625 -2.414062 3.625 -2.34375 C 3.625 -2.28125 3.625 -2.210938 3.625 -2.140625 C 3.625 -1.847656 3.625 -1.550781 3.625 -1.25 C 3.625 -0.957031 3.617188 -0.660156 3.609375 -0.359375 C 3.609375 -0.335938 3.609375 -0.316406 3.609375 -0.296875 C 3.617188 -0.273438 3.617188 -0.253906 3.609375 -0.234375 C 3.585938 -0.160156 3.578125 -0.0820312 3.578125 0 C 3.578125 0.0703125 3.578125 0.144531 3.578125 0.21875 C 3.578125 0.226562 3.578125 0.234375 3.578125 0.234375 C 3.578125 0.234375 3.578125 0.238281 3.578125 0.25 C 3.554688 0.382812 3.546875 0.519531 3.546875 0.65625 C 3.546875 0.800781 3.535156 0.945312 3.515625 1.09375 C 3.492188 1.25 3.460938 1.394531 3.421875 1.53125 C 3.367188 1.664062 3.296875 1.765625 3.203125 1.828125 C 3.109375 1.898438 2.992188 1.953125 2.859375 1.984375 C 2.765625 1.992188 2.671875 2 2.578125 2 C 2.484375 2.007812 2.390625 2.015625 2.296875 2.015625 C 2.179688 2.015625 2.066406 2.015625 1.953125 2.015625 C 1.835938 2.015625 1.722656 2.023438 1.609375 2.046875 C 1.566406 2.054688 1.519531 2.0625 1.46875 2.0625 C 1.425781 2.0625 1.378906 2.0625 1.328125 2.0625 C 1.222656 2.070312 1.113281 2.078125 1 2.078125 C 0.894531 2.085938 0.789062 2.09375 0.6875 2.09375 C 0.644531 2.101562 0.597656 2.101562 0.546875 2.09375 C 0.410156 2.070312 0.335938 1.992188 0.328125 1.859375 C 0.328125 1.847656 0.328125 1.835938 0.328125 1.828125 C 0.328125 1.816406 0.328125 1.804688 0.328125 1.796875 C 0.328125 1.679688 0.320312 1.5625 0.3125 1.4375 C 0.3125 1.320312 0.3125 1.203125 0.3125 1.078125 C 0.3125 0.984375 0.34375 0.910156 0.40625 0.859375 Z M 0.40625 0.859375 "/></g></g></g></g></g></g><g clip-path="url(#227d0f5a91)"><path fill="#ffbf1a" d="M 12.753906 1.652344 C 12.519531 1.652344 12.316406 1.734375 12.148438 1.902344 C 11.984375 2.070312 11.898438 2.269531 11.898438 2.507812 C 11.898438 2.746094 11.984375 2.945312 12.148438 3.113281 C 12.316406 3.28125 12.519531 3.363281 12.753906 3.363281 C 12.992188 3.363281 13.195312 3.28125 13.359375 3.113281 C 13.527344 2.945312 13.613281 2.746094 13.613281 2.507812 C 13.613281 2.269531 13.527344 2.070312 13.359375 1.902344 C 13.195312 1.734375 12.992188 1.652344 12.753906 1.652344 Z M 17.207031 1.652344 C 16.972656 1.652344 16.769531 1.734375 16.601562 1.902344 C 16.4375 2.070312 16.351562 2.269531 16.351562 2.507812 C 16.351562 2.746094 16.4375 2.945312 16.601562 3.113281 C 16.769531 3.28125 16.972656 3.363281 17.207031 3.363281 C 17.445312 3.363281 17.648438 3.28125 17.8125 3.113281 C 17.980469 2.945312 18.066406 2.746094 18.066406 2.507812 C 18.066406 2.269531 17.980469 2.070312 17.8125 1.902344 C 17.648438 1.734375 17.445312 1.652344 17.207031 1.652344 Z M 18.074219 4.726562 C 17.949219 4.722656 17.851562 4.777344 17.785156 4.882812 C 17.785156 4.882812 16.671875 6.449219 14.980469 6.449219 C 13.292969 6.449219 12.179688 4.882812 12.179688 4.882812 C 12.109375 4.777344 12.015625 4.726562 11.890625 4.730469 C 11.75 4.734375 11.652344 4.796875 11.589844 4.917969 C 11.527344 5.042969 11.539062 5.160156 11.617188 5.273438 C 11.617188 5.273438 12.878906 7.132812 14.980469 7.132812 C 17.085938 7.132812 18.347656 5.273438 18.347656 5.273438 C 18.429688 5.160156 18.441406 5.039062 18.378906 4.914062 C 18.316406 4.789062 18.214844 4.726562 18.074219 4.726562 Z M 10.535156 5.6875 C 10.492188 5.6875 10.449219 5.695312 10.410156 5.710938 L 8.355469 6.46875 C 8.246094 6.503906 8.171875 6.574219 8.136719 6.683594 L 6.46875 9.347656 C 6.414062 9.441406 6.402344 9.539062 6.4375 9.640625 C 6.472656 9.742188 6.539062 9.8125 6.640625 9.851562 L 8.128906 10.398438 L 8.128906 14.328125 C 8.132812 14.484375 8.207031 14.59375 8.355469 14.648438 L 14.863281 17.046875 C 14.941406 17.074219 15.023438 17.074219 15.101562 17.046875 L 21.609375 14.648438 C 21.757812 14.59375 21.832031 14.484375 21.832031 14.328125 L 21.832031 10.398438 L 23.320312 9.851562 C 23.425781 9.8125 23.492188 9.742188 23.527344 9.640625 C 23.5625 9.539062 23.550781 9.441406 23.492188 9.347656 L 21.828125 6.683594 C 21.789062 6.574219 21.71875 6.503906 21.609375 6.46875 C 21.605469 6.46875 21.601562 6.464844 21.597656 6.464844 L 19.554688 5.710938 C 19.511719 5.695312 19.464844 5.6875 19.417969 5.6875 C 19.230469 5.695312 19.121094 5.792969 19.09375 5.980469 C 19.066406 6.164062 19.140625 6.289062 19.316406 6.355469 L 20.5 6.789062 L 14.980469 8.824219 L 9.464844 6.789062 L 10.648438 6.355469 C 10.828125 6.289062 10.902344 6.164062 10.871094 5.972656 C 10.839844 5.785156 10.726562 5.6875 10.535156 5.6875 Z M 8.617188 7.207031 L 14.46875 9.363281 L 13.125 11.511719 L 7.273438 9.355469 Z M 21.347656 7.207031 L 22.691406 9.355469 L 16.835938 11.511719 L 15.496094 9.363281 Z M 14.640625 10.382812 L 14.640625 16.234375 L 8.816406 14.085938 L 8.816406 10.652344 L 13.152344 12.25 C 13.324219 12.3125 13.460938 12.265625 13.558594 12.109375 Z M 15.324219 10.382812 L 16.40625 12.109375 C 16.503906 12.265625 16.640625 12.3125 16.8125 12.25 L 21.148438 10.652344 L 21.148438 14.085938 L 15.324219 16.234375 Z M 15.324219 10.382812 " fill-opacity="1" fill-rule="nonzero"/></g></g></g></g></svg>